<svg width="65" height="66" viewBox="0 0 65 66" fill="none" xmlns="http://www.w3.org/2000/svg">
<path d="M17.4291 53.1613C26.6326 57.7662 37.8265 54.0383 42.4315 44.8348C47.0364 35.6313 43.3085 24.4373 34.105 19.8324C24.9015 15.2274 13.7075 18.9553 9.10259 28.1589C4.49765 37.3624 8.22555 48.5563 17.4291 53.1613Z" fill="white"/>
<path d="M49.8426 22.1438C54.0049 24.2263 59.0673 22.5404 61.1499 18.3781C63.2324 14.2159 61.5465 9.15344 57.3842 7.07087C53.222 4.9883 48.1595 6.67423 46.077 10.8365C43.9944 14.9988 45.6803 20.0612 49.8426 22.1438Z" fill="#F2BFAF" stroke="#2D2D2D" stroke-width="2" stroke-miterlimit="10"/>
<path d="M20.4511 54.3324C21.1437 53.5193 21.7352 52.6251 22.2126 51.6696C23.7814 48.5341 24.0404 44.9039 22.9326 41.5775C21.8249 38.2511 19.4411 35.501 16.3056 33.9322C13.5974 32.5708 10.5021 32.1868 7.54338 32.8452" stroke="#F8D57E" stroke-width="2" stroke-miterlimit="10"/>
<path d="M32.2787 18.6628C31.3071 19.6289 30.4996 20.7471 29.8879 21.9732C28.3867 24.9735 28.1384 28.4472 29.1978 31.6305C30.2571 34.8138 32.5373 37.4461 35.537 38.9486C38.1741 40.2733 41.193 40.6293 44.0659 39.9542" stroke="#F8D57E" stroke-width="2" stroke-miterlimit="10"/>
<path d="M22.3143 50.9663L20.4025 54.0251L15.0496 50.9663L11.226 47.9075L8.1672 42.9369L7.02014 37.9663L7.78485 32.9957H11.226L15.8143 33.7604L20.7848 37.584L22.3143 41.4075L23.4613 45.9957L22.3143 50.9663Z" fill="#F8D57E"/>
<path d="M30.4975 21.6003L32.6262 18.6883L37.7431 22.1274L41.3346 25.4556L44.0247 30.6351L44.808 35.6758L43.6847 40.5778L40.2526 40.3281L35.7319 39.2325L31.0519 35.0584L28.9928 30.6351L28.9928 26.4746L30.4975 21.6003Z" fill="#F8D57E"/>
<path d="M17.4291 53.1613C26.6326 57.7662 37.8265 54.0383 42.4315 44.8348C47.0364 35.6313 43.3085 24.4373 34.105 19.8324C24.9015 15.2274 13.7075 18.9553 9.10259 28.1589C4.49765 37.3624 8.22555 48.5563 17.4291 53.1613Z" stroke="#2D2D2D" stroke-width="2" stroke-miterlimit="10"/>
</svg>
