<svg width="65" height="66" viewBox="0 0 65 66" fill="none" xmlns="http://www.w3.org/2000/svg">
<path d="M27.5294 34.653L29.8235 37.3294L25.6176 41.5353L27.5294 43.0647L24.4706 44.5941L22.5588 43.0647H19.1176L16.4412 45.7412V48.8L17.9706 51.4765L16.4412 53.7706L13 48.8L13.7647 44.5941L16.4412 41.5353L27.5294 34.653Z" fill="#009379"/>
<path d="M28.6765 45.3588L27.5294 42.6824L24.8529 44.2118V46.5059V49.5647L23.3235 51.0941H20.647L18.3529 50.7118L16.4412 53.3883L19.1176 54.5353H23.3235L26.3823 52.6235L28.2941 49.5647L28.6765 45.3588Z" fill="#009379"/>
<path d="M18.3704 40.1641L32.5515 31.3677V27.0708L55.4154 15.8861L25.7873 41.0492" stroke="#2D2D2D" stroke-width="2" stroke-linecap="round" stroke-linejoin="round"/>
<path d="M18.3952 40.2186C16.9575 40.802 15.7265 41.8011 14.8598 43.088C13.993 44.3749 13.5299 45.8911 13.5297 47.4426C13.5297 49.5107 14.3512 51.4941 15.8135 52.9564C17.2759 54.4187 19.2592 55.2403 21.3273 55.2403C23.3954 55.2403 25.3787 54.4187 26.8411 52.9564C28.3034 51.4941 29.125 49.5107 29.125 47.4426C29.1246 46.1875 28.8215 44.9509 28.2414 43.8379C27.6612 42.7249 26.8211 41.7683 25.7923 41.0493" stroke="#2D2D2D" stroke-width="2" stroke-linecap="round" stroke-linejoin="round"/>
<path d="M25.5708 28.1128L26.3355 24.1142L22.0008 23.1021L22.8767 20.8159L19.4644 21.0433L18.5885 23.3295L15.6198 25.0697L11.9573 24.1142L10.4104 21.4753L10.3764 18.3929L7.8968 17.1871L7.89677 22.7599L10.2283 26.4573L14.0842 27.7426L25.5708 28.1128Z" fill="#009379"/>
<path d="M22.7061 18.2566L23.0701 21.1457L19.9876 21.1798L19.4532 18.1717L16.7767 15.8776L13.7179 15.4952L11.8061 17.0246L11.093 18.8592L8.09017 17.517L9.81911 15.1739L12.5708 12.4364L16.7767 12.054L19.9876 13.9658L22.7061 18.2566Z" fill="#009379"/>
<path d="M21.2728 51.8681C23.7279 51.8681 25.718 49.8779 25.718 47.4229C25.718 44.9678 23.7279 42.9777 21.2728 42.9777C18.8178 42.9777 16.8276 44.9678 16.8276 47.4229C16.8276 49.8779 18.8178 51.8681 21.2728 51.8681Z" stroke="#2D2D2D" stroke-width="2" stroke-linecap="round" stroke-linejoin="round"/>
<path d="M34.3465 26.1907L22.1827 23.5651" stroke="#2D2D2D" stroke-width="2" stroke-linecap="round" stroke-linejoin="round"/>
<path d="M35.6616 32.668L60.1819 31.7681L41.4715 27.7283" stroke="#2D2D2D" stroke-width="2" stroke-linecap="round" stroke-linejoin="round"/>
<path d="M15.8635 27.7877L32.517 28.8459" stroke="#2D2D2D" stroke-width="2" stroke-linecap="round" stroke-linejoin="round"/>
<path d="M16.0613 27.7928C14.5175 27.9578 12.9596 27.6581 11.5871 26.9323C10.2147 26.2064 9.09016 25.0873 8.35761 23.7184C7.87411 22.8159 7.5732 21.827 7.47207 20.8082C7.37094 19.7893 7.47157 18.7606 7.76821 17.7807C8.06485 16.8007 8.55169 15.8888 9.2009 15.0971C9.85011 14.3055 10.649 13.6494 11.5518 13.1666C12.4544 12.6828 13.4434 12.3816 14.4624 12.28C15.4814 12.1785 16.5105 12.2786 17.4908 12.5748C18.471 12.8709 19.3834 13.3573 20.1757 14.006C20.9681 14.6548 21.6248 15.4533 22.1086 16.3559C22.7002 17.4627 23.0163 18.6959 23.0301 19.9509C23.0439 21.2058 22.7549 22.4456 22.1877 23.5652" stroke="#2D2D2D" stroke-width="2" stroke-linecap="round" stroke-linejoin="round"/>
<path d="M15.1959 24.5293C17.651 24.5293 19.6411 22.5391 19.6411 20.0841C19.6411 17.629 17.651 15.6389 15.1959 15.6389C12.7409 15.6389 10.7507 17.629 10.7507 20.0841C10.7507 22.5391 12.7409 24.5293 15.1959 24.5293Z" stroke="#2D2D2D" stroke-width="2" stroke-linecap="round" stroke-linejoin="round"/>
<path d="M36.6147 28.3168C36.6147 28.1824 36.7237 28.0734 36.8582 28.0734C36.9927 28.0734 37.1017 28.1824 37.1017 28.3168C37.1017 28.4513 36.9927 28.5603 36.8582 28.5603C36.7237 28.5603 36.6147 28.4513 36.6147 28.3168Z" fill="#2D2D2D" stroke="#2D2D2D" stroke-width="2"/>
</svg>
