<svg width="65" height="66" viewBox="0 0 65 66" fill="none" xmlns="http://www.w3.org/2000/svg">
<circle cx="32.1176" cy="33.1236" r="25.7647" fill="#FF6250" stroke="#2D2D2D" stroke-width="2"/>
<path d="M43.2058 30.0418H20.2876C20.2285 30.0418 20.1805 30.0897 20.1805 30.1489V35.4636C20.1805 35.5227 20.2285 35.5706 20.2876 35.5706H43.2058C43.265 35.5706 43.3129 35.5227 43.3129 35.4636V30.1489C43.3129 30.0897 43.265 30.0418 43.2058 30.0418Z" fill="white"/>
<path d="M33.1881 29.9425C33.4623 29.9773 33.7398 29.9773 34.014 29.9425C34.3964 29.9425 34.7788 29.9425 35.1841 29.8966L37.4399 29.8431H37.8223C38.2506 29.9084 38.6862 29.9084 39.1146 29.8431C39.1883 29.8355 39.2626 29.8355 39.3364 29.8431C40.2693 29.9502 41.2024 29.8431 42.1353 29.8431H43.0146C43.1752 29.8431 43.3206 29.8431 43.4429 29.9425C43.5001 30.078 43.5286 30.2237 43.5269 30.3707V30.409C43.5269 30.5772 43.5269 30.776 43.5269 30.906C43.5305 31.0331 43.5511 31.1591 43.5882 31.2807C43.6011 31.3746 43.6011 31.4698 43.5882 31.5637C43.5882 32.2443 43.5882 32.8101 43.5882 33.3531V34.1178C43.5882 34.4007 43.5882 34.699 43.5882 35.0125C43.6143 35.228 43.5961 35.4466 43.5346 35.6548C43.5224 35.7028 43.4975 35.7465 43.4625 35.7815C43.4275 35.8165 43.3837 35.8415 43.3357 35.8537C43.2387 35.8844 43.1389 35.9049 43.0376 35.9148H41.8829H39.3899C38.7399 35.9148 38.0899 35.9148 37.4399 35.9148C36.4228 35.9148 35.3981 35.9149 34.3811 35.9684C33.364 36.0219 32.4923 36.0448 31.544 36.0448H29.7622H28.5922C27.6516 36.0448 26.7034 36.0984 25.7781 36.0448C24.654 36.0448 23.5606 36.0448 22.4671 36.106C22.2606 36.106 22.0541 36.106 21.8706 36.1596C21.3904 36.2725 20.886 36.2185 20.4405 36.0066C20.234 35.8689 20.0964 35.7237 20.2876 35.5631C20.4788 35.4025 20.6699 35.3107 21.3734 35.326C22.0769 35.3413 22.5588 35.2801 23.1629 35.326C23.3459 35.3177 23.5277 35.2922 23.7058 35.2495C24.4705 35.2495 25.2352 35.2496 25.9999 35.1884C26.2523 35.1884 26.5506 35.1884 26.8259 35.1884C27.1012 35.1884 27.5905 35.1884 27.9117 35.1884C28.814 35.1884 29.7241 35.1883 30.6188 35.1348C30.8788 35.1348 31.1846 35.1348 31.4675 35.1348C32.2927 35.1807 33.1199 35.1807 33.9451 35.1348C34.7098 35.2342 35.4746 35.1349 36.2393 35.196C36.5069 35.196 36.7899 35.196 37.0652 35.196H37.2334L38.587 35.1348H40.2769C40.6746 35.1348 41.0417 35.1348 41.4699 35.1348C41.6558 35.1456 41.8422 35.1456 42.0281 35.1348C42.1848 35.1209 42.3407 35.098 42.4947 35.066C42.5806 35.1143 42.6799 35.1331 42.7775 35.1196C42.8234 35.0431 42.7775 34.9283 42.7775 34.8366V32.8483V30.6307C42.7893 30.5649 42.7893 30.4977 42.7775 30.4319C42.7316 30.3861 42.6475 30.4319 42.5864 30.4319H42.3799H41.9822C41.7931 30.4673 41.6011 30.4852 41.4087 30.4854C40.6445 30.4434 39.8787 30.4434 39.1146 30.4854H38.6635C38.6067 30.4647 38.5457 30.4581 38.4858 30.4661C38.4258 30.4741 38.3688 30.4965 38.3194 30.5313H37.8835C37.6841 30.5029 37.4809 30.5376 37.3023 30.6307C37.027 30.6307 36.8588 30.516 36.5835 30.6307C36.1018 30.6307 35.6046 30.6307 35.1381 30.6307C34.4007 30.607 33.6627 30.6301 32.9282 30.6996C32.7222 30.7495 32.5071 30.7495 32.3011 30.6996C32.2476 30.6996 31.9493 30.6996 31.8652 30.6996C31.7308 30.6792 31.5942 30.6792 31.4598 30.6996C30.7487 30.6996 30.03 30.6996 29.3188 30.6996C29.0643 30.6801 28.8086 30.6801 28.5541 30.6996C28.0914 30.7836 27.6173 30.7836 27.1546 30.6996C26.8576 30.6622 26.5571 30.6622 26.26 30.6996C25.783 30.7953 25.2916 30.7953 24.8146 30.6996C24.6342 30.6786 24.4521 30.6786 24.2717 30.6996H24.1951H24.2793L21.7405 30.7454C21.4422 30.7454 21.1135 30.7454 20.8458 30.7454C20.8458 30.7454 20.7922 30.7454 20.7769 30.7837V31.0819C20.7769 31.8466 20.8841 32.5425 20.8535 33.2996C20.8267 33.7835 20.8267 34.2685 20.8535 34.7524C20.8754 34.9175 20.8569 35.0854 20.7999 35.2419C20.7816 35.2997 20.7587 35.356 20.7312 35.4101H20.4252V35.326C20.3564 35.1042 20.2875 34.8901 20.2111 34.6607C20.1346 34.4313 20.1653 33.9572 20.1423 33.5902C20.1081 33.4005 20.1081 33.2063 20.1423 33.0166C20.1767 32.8244 20.1767 32.6277 20.1423 32.4355C20.0506 32.0072 20.0581 31.4948 19.9893 31.059C20.0964 30.8192 20.1285 30.5526 20.0811 30.2942C20.0811 30.2101 20.0811 30.1336 20.0811 30.0648C20.082 30.047 20.0866 30.0297 20.0946 30.0137C20.1025 29.9978 20.1136 29.9836 20.1272 29.9721C20.1408 29.9606 20.1566 29.9521 20.1737 29.947C20.1908 29.9419 20.2087 29.9404 20.2264 29.9425C20.3638 29.9311 20.5019 29.9311 20.6393 29.9425C20.8967 29.9578 21.1524 29.9936 21.404 30.0496L21.7864 29.9119C21.8468 29.9855 21.9282 30.0388 22.0198 30.0648C22.1113 30.0908 22.2087 30.0881 22.2987 30.0571C22.9559 29.9241 23.6313 29.9061 24.2946 30.0037L24.5928 29.8431L24.9524 29.9883C25.2645 29.9461 25.5808 29.9461 25.893 29.9883C25.9845 29.9977 26.0766 29.9977 26.1681 29.9883C26.2981 29.9883 26.4434 29.9883 26.5505 29.9883C26.6825 29.9472 26.8238 29.9472 26.9558 29.9883H27.1317H26.9482C26.994 29.9042 27.1776 29.8813 27.3994 29.8736C27.7512 29.8736 28.164 29.8736 28.4469 29.7972C28.7772 29.7898 29.1067 29.7617 29.4334 29.7131C29.6215 29.6921 29.8113 29.6921 29.9993 29.7131C30.5011 29.6021 31.0154 29.5584 31.5287 29.583L32.2322 29.8048H32.3853H33.15L33.1881 29.9425Z" fill="white"/>
<path d="M20.0429 30.5925C19.997 30.7225 19.9588 30.8754 19.913 30.9825V30.9289C19.913 30.8524 19.913 30.6919 19.9589 30.6078C19.9774 30.5439 20.0029 30.4823 20.0353 30.4243L20.0429 30.5925Z" fill="white"/>
<path d="M33.5248 29.8201L33.6011 29.7741C33.6392 29.7688 33.6779 29.7688 33.716 29.7741C33.716 29.7741 33.716 29.7742 33.716 29.8124L33.5248 29.8201Z" fill="white"/>
<path d="M33.1959 29.9425L33.2647 29.9042L33.3259 29.9272L33.1882 29.9425H33.1959Z" fill="white"/>
<path d="M40.5294 30.5695H40.5906H40.5217C40.5217 30.5695 40.537 30.5772 40.5294 30.5695Z" fill="white"/>
<path d="M32.2476 29.9272L32.3623 29.8889L32.4082 29.9272H32.4159H32.24H32.2476Z" fill="white"/>
<path d="M29.6935 29.2695L29.7318 29.2771L29.6782 29.2848L29.6935 29.2695Z" fill="white"/>
<path d="M36.6982 30.5848L36.8512 30.6383H36.8588L36.7059 30.5771L36.6982 30.5848Z" fill="white"/>
<path d="M38.587 30.5618H38.4417H38.4341L38.6023 30.5695L38.587 30.5618Z" fill="white"/>
<path d="M38.7629 30.5159L38.587 30.5618L38.6023 30.5695L38.7706 30.5159H38.7629Z" fill="white"/>
<path d="M37.18 35.3106L37.3482 35.3183V35.3106H37.1724H37.18Z" fill="white"/>
<path d="M34.3965 21.2401H29.0818C29.0227 21.2401 28.9747 21.288 28.9747 21.3471V44.2653C28.9747 44.3245 29.0227 44.3724 29.0818 44.3724H34.3965C34.4556 44.3724 34.5036 44.3245 34.5036 44.2653V21.3471C34.5036 21.288 34.4556 21.2401 34.3965 21.2401Z" fill="white"/>
<path d="M28.8829 31.3648C28.9255 31.0886 28.9255 30.8075 28.8829 30.5313C28.8829 30.1566 28.8829 29.7666 28.837 29.369L28.7834 27.0748C28.7834 26.9448 28.7834 26.8148 28.7834 26.6925C28.8487 26.2642 28.8487 25.8284 28.7834 25.4001C28.7758 25.3264 28.7758 25.2521 28.7834 25.1784C28.8828 24.2454 28.7834 23.3125 28.7834 22.3719V21.5001C28.7834 21.3395 28.7835 21.1942 28.8829 21.0718C29.0184 21.0147 29.1642 20.9861 29.3112 20.9877H29.8541C29.9782 20.9798 30.1012 20.9593 30.2212 20.9266C30.3176 20.9137 30.4152 20.9137 30.5117 20.9266C31.1923 20.9266 31.7582 20.9266 32.2935 20.9266H33.0582H33.9528C34.1684 20.8997 34.3872 20.9179 34.5953 20.9801C34.6432 20.9923 34.687 21.0172 34.722 21.0522C34.757 21.0872 34.7819 21.131 34.7941 21.1789C34.8276 21.2756 34.8508 21.3756 34.863 21.4771V22.6319L34.9011 25.1248C34.9011 25.7748 34.9011 26.4248 34.9011 27.0748C34.9011 28.0919 34.9011 29.1166 34.9547 30.1337C35.0082 31.1507 35.0312 32.0225 35.0389 32.9707V34.7524V35.9225C35.0389 36.863 35.0924 37.8113 35.0389 38.7366C34.9978 39.8406 35.0181 40.946 35.0999 42.0478C35.0999 42.2466 35.1 42.4607 35.1458 42.6442C35.2587 43.1244 35.2048 43.6288 34.9929 44.0742C34.8553 44.2807 34.7099 44.4183 34.5493 44.2271C34.3888 44.036 34.3048 43.8449 34.3124 43.1413C34.3201 42.4378 34.2665 41.956 34.3124 41.3518C34.308 41.1685 34.2822 40.9864 34.2359 40.8089C34.2359 40.0442 34.2358 39.2795 34.1746 38.5148C34.1597 38.2397 34.1597 37.9641 34.1746 37.689C34.1746 37.3296 34.1746 36.9625 34.1746 36.6031C34.1746 35.7007 34.1748 34.7907 34.1136 33.8883C34.1136 33.636 34.1136 33.3301 34.1136 33.0472C34.1633 32.222 34.1633 31.3946 34.1136 30.5695C34.213 29.8048 34.1135 29.0401 34.1746 28.2754C34.1895 27.9978 34.1895 27.7195 34.1746 27.4419V27.266C34.1746 26.8148 34.1365 26.3484 34.1136 25.9125C34.1136 25.3542 34.1136 24.7884 34.1136 24.2225C34.1136 23.8249 34.0754 23.4578 34.1136 23.0295C34.1282 22.8437 34.1282 22.6571 34.1136 22.4713C34.0997 22.3146 34.0767 22.1589 34.0447 22.0048C34.0919 21.9184 34.1132 21.8201 34.1059 21.7219C34.0218 21.676 33.907 21.7219 33.8229 21.7219H31.8271H29.6094C29.5433 21.7141 29.4766 21.7141 29.4105 21.7219C29.4105 21.7754 29.4105 21.8596 29.4105 21.9207V22.1271V22.5324C29.4398 22.7222 29.4552 22.9139 29.4565 23.106C29.4142 23.8701 29.4142 24.636 29.4565 25.4001V25.8666C29.4182 26.0501 29.4565 26.1495 29.51 26.2031C29.51 26.3484 29.51 26.4936 29.51 26.6389C29.476 26.8375 29.5082 27.0417 29.6017 27.2201C29.6017 27.4954 29.4946 27.6637 29.5634 27.939C29.5634 28.4207 29.5634 28.9178 29.5634 29.3843C29.5437 30.1217 29.5668 30.8595 29.6323 31.5942C29.6823 31.8002 29.6823 32.0153 29.6323 32.2213C29.6323 32.2748 29.6782 32.573 29.6323 32.6571C29.612 32.7915 29.612 32.9281 29.6323 33.0625C29.6323 33.7736 29.6323 34.4925 29.6323 35.2037C29.6323 35.456 29.6323 35.739 29.6323 35.9684C29.7127 36.4314 29.7127 36.9047 29.6323 37.3678C29.5909 37.6646 29.5909 37.9657 29.6323 38.2625C29.7281 38.7395 29.7281 39.2308 29.6323 39.7078C29.6154 39.8884 29.6154 40.0701 29.6323 40.2507L29.5941 40.3272L29.6323 40.2431L29.6706 42.7818C29.6706 43.0801 29.6706 43.4089 29.6706 43.6766C29.6706 43.6766 29.6706 43.7301 29.7089 43.7377C29.7089 43.7377 29.7087 43.7377 29.747 43.7377H29.9688C30.7335 43.7377 31.4295 43.6307 32.1865 43.6613C32.6705 43.688 33.1554 43.688 33.6394 43.6613C33.8045 43.6394 33.9725 43.6578 34.1289 43.7149C34.1868 43.7332 34.243 43.7561 34.2971 43.7836H34.3352V44.3113V44.0896H34.2512L33.5858 44.3036L32.5153 44.3725C32.3282 44.4068 32.1365 44.4068 31.9494 44.3725C31.7546 44.3382 31.5554 44.3382 31.3606 44.3725C30.9323 44.4643 30.42 44.4566 29.9841 44.5254C29.7443 44.4183 29.4777 44.3863 29.2194 44.4336H28.9899C28.9721 44.4327 28.9547 44.4281 28.9388 44.4202C28.9228 44.4123 28.9088 44.4011 28.8973 44.3875C28.8858 44.3739 28.8772 44.3581 28.8721 44.341C28.867 44.324 28.8655 44.3061 28.8676 44.2884C28.86 44.1508 28.86 44.013 28.8676 43.8754C28.8867 43.6185 28.9224 43.363 28.9746 43.1107L28.8447 42.7284C28.9169 42.667 28.9689 42.5852 28.9935 42.4937C29.0181 42.4021 29.0141 42.3052 28.9823 42.216C28.8494 41.5587 28.8314 40.8835 28.9289 40.2201L28.776 39.9218C28.8218 39.7995 28.8677 39.6925 28.9136 39.5625C28.8827 39.2484 28.8982 38.9315 28.9595 38.6219C28.968 38.5303 28.968 38.4382 28.9595 38.3466C28.9595 38.2166 28.9595 38.0713 28.9595 37.9642C28.9183 37.8323 28.9183 37.6909 28.9595 37.5589L28.9976 37.3754L28.9595 37.5666C28.883 37.5207 28.86 37.3372 28.8447 37.1154C28.8447 36.7637 28.8448 36.3507 28.7683 36.0678C28.7685 35.7372 28.7403 35.4071 28.6841 35.0813C28.671 34.8929 28.671 34.7038 28.6841 34.5154C28.5732 34.0136 28.5295 33.4993 28.5542 32.986C28.6306 32.7566 28.7071 32.5195 28.776 32.2824V32.1219V31.3572L28.8829 31.3648Z" fill="white"/>
<path d="M29.5407 44.5101C29.663 44.556 29.816 44.5942 29.923 44.6401H29.8694C29.7625 44.6472 29.6551 44.6472 29.5481 44.6401C29.4843 44.6216 29.4227 44.596 29.3646 44.5637L29.5407 44.5101Z" fill="white"/>
<path d="M28.7607 31.0589L28.7148 30.9825C28.7095 30.9419 28.7095 30.9007 28.7148 30.8601C28.7148 30.8601 28.7148 30.8601 28.753 30.8601L28.7607 31.0589Z" fill="white"/>
<path d="M28.8217 43.0495C28.8184 43.0293 28.8184 43.0085 28.8217 42.9883V43.0419V43.0495Z" fill="white"/>
<path d="M28.2251 26.5318V26.5931V26.5166C28.2249 26.5217 28.2249 26.5267 28.2251 26.5318Z" fill="white"/>
<path d="M28.8829 31.3571L28.837 31.2807L28.86 31.2195L28.8829 31.3648V31.3571Z" fill="white"/>
<path d="M29.51 24.0236V23.9624V24.0236C29.5177 24.016 29.51 24.0236 29.51 24.0236Z" fill="white"/>
<path d="M28.8676 32.2977L28.8293 32.183L28.8676 32.1447V32.1371L28.8599 32.313L28.8676 32.2977Z" fill="white"/>
<path d="M28.21 34.8595L28.2176 34.8212L28.2253 34.8671L28.21 34.8595Z" fill="white"/>
<path d="M29.5252 27.8471L29.5788 27.6942V27.6865L29.5176 27.8395L29.5252 27.8471Z" fill="white"/>
<path d="M29.5023 25.9583V26.1112L29.51 25.9506L29.5023 25.9583Z" fill="white"/>
<path d="M29.4564 25.7824L29.5023 25.9583L29.51 25.9507L29.4564 25.7748V25.7824Z" fill="white"/>
</svg>
