<svg width="62" height="46" viewBox="0 0 62 46" fill="none" xmlns="http://www.w3.org/2000/svg">
<path d="M0.0789795 30.4826C0.0789795 38.8075 6.19522 45.7733 13.3308 45.7733C20.2966 45.7733 25.5633 40.5065 25.5633 33.7107C25.5633 26.4051 19.1073 21.4782 10.6125 20.9685C12.8212 15.5318 16.5589 9.75537 23.8644 2.44985L21.6557 0.241211C7.55439 8.22631 0.0789795 20.2889 0.0789795 30.4826ZM36.4367 30.4826C36.4367 38.8075 42.5529 45.7733 49.6885 45.7733C56.6542 45.7733 61.921 40.5065 61.921 33.7107C61.921 26.4051 55.465 21.4782 46.9702 20.9685C49.1788 15.5318 52.9165 9.75537 60.2221 2.44985L58.0134 0.241211C43.9121 8.22631 36.4367 20.2889 36.4367 30.4826Z" fill="#2D2D2D"/>
</svg>
