<svg width="65" height="66" viewBox="0 0 65 66" fill="none" xmlns="http://www.w3.org/2000/svg">
<path d="M55.8634 28.8305C57.5497 27.0304 58.4098 24.4929 57.948 21.8744C57.1698 17.4608 52.966 14.5172 48.5524 15.2955C44.1388 16.0737 41.1952 20.2775 41.9734 24.6911C42.0693 25.2346 42.2213 25.7597 42.4116 26.261L21.3317 29.978C21.3473 29.4403 21.3023 28.8964 21.2065 28.3529C20.4282 23.9393 16.2244 20.9958 11.8108 21.774C7.39719 22.5522 4.45363 26.7561 5.23186 31.1697C5.69358 33.7882 7.36142 35.8799 9.56995 36.9933C7.88364 38.7934 7.02355 41.3308 7.48527 43.9494C8.2635 48.363 12.4673 51.3065 16.8809 50.5283C21.2945 49.75 24.2381 45.5462 23.4599 41.1326C23.364 40.5891 23.212 40.0641 23.0217 39.5627L44.1016 35.8458C44.0861 36.3834 44.131 36.9274 44.2269 37.4708C45.0051 41.8844 49.2089 44.828 53.6225 44.0497C58.0361 43.2715 60.9797 39.0677 60.2014 34.6541C59.7315 32.037 58.0637 29.9453 55.8634 28.8305Z" fill="#2D2D2D"/>
</svg>
